<?xml version="1.0" encoding="utf-8"?>
<!-- Generator: Adobe Illustrator 18.1.0, SVG Export Plug-In . SVG Version: 6.00 Build 0)  -->
<svg version="1.1" id="Layer_1" xmlns="http://www.w3.org/2000/svg" xmlns:xlink="http://www.w3.org/1999/xlink" x="0px" y="0px"
	 viewBox="0 0 497.6 497.6" enable-background="new 0 0 497.6 497.6" xml:space="preserve" style="background-color:white">
<g>
	<path fill="#AF182A" d="M248.8,0C111.6,0,0,111.6,0,248.8s111.6,248.8,248.8,248.8c137.2,0,248.8-111.6,248.8-248.8S386,0,248.8,0
		L248.8,0z M491.5,248.8c0,133.8-108.9,242.7-242.7,242.7C115,491.5,6.1,382.7,6.1,248.8C6.1,115,115,6.1,248.8,6.1
		C382.7,6.1,491.5,115,491.5,248.8L491.5,248.8z"/>
	<path fill="#AF182A" d="M248.8,9.3C116.7,9.3,9.3,116.7,9.3,248.8c0,132.1,107.5,239.5,239.5,239.5
		c132.1,0,239.5-107.5,239.5-239.5C488.3,116.7,380.9,9.3,248.8,9.3L248.8,9.3z M486.1,248.8c0,130.8-106.4,237.3-237.3,237.3
		S11.6,379.6,11.6,248.8C11.6,118,118,11.6,248.8,11.6S486.1,118,486.1,248.8L486.1,248.8z"/>
	<path fill-rule="evenodd" clip-rule="evenodd" fill="#AF182A" d="M173.2,34.9c-0.3,8.9,8,4.2,13.2,3.8c1.9-0.1,18.6-6.7,16.2,0.2
		c-1.5,4.3-6.9,2.9-10.3,3.2c-4.1,0.5-8.6,1.9-12.3,3.6c-3.6,1.7-0.9,4,2,3.3c2.7-0.7,5.2-0.9,7.9-0.8c6.6,0.4,13.5,2.3,18.9,6.1
		c2.8,2,10.6,9.8,5.7,12.1c-3,1.4-7.1-2.8-9.3-4.6c-3.5-3-5.7-5.7-10.3-7.1c-8.2-2.6-16.5-1-23,4.6c-5.9,5.1-10.3,11-11.6,18.7
		c-0.6,3.2-2,14.7-7.2,10.9c-5.8-4.2,2.5-17.9,4-20.3c0.8-1.2,2.2-2.8,3.8-4.5c1-1.1,3.3-3.8,5-5.8c0.9-1.1,4-4,5.3-5
		c1.8-1.4,2.6-4-0.8-3.9c-3.2,0.1-4.6,2-8.5,3.7c-3.9,1.7-14,10.9-15.9,5.4c-2.4-6.8,12.7-9.5,16.7-11.1c0.9-0.4,2.2-0.8,3.2-1.2
		c0.8-0.3,1.9-1,2-1.2c0.8-1.1,1.4-2.7,1.1-3.5c-0.8-2-2.3-4.5-2.3-6.6C168.3,33.7,171.4,33.6,173.2,34.9L173.2,34.9z"/>
	<path fill-rule="evenodd" clip-rule="evenodd" fill="#AF182A" d="M159.9,309.6l-17.6-9.4l-5.8,10.2c4.2,2.9,6.2,7.2,6.8,12.3
		l31.4,16.8l9.6-16.8l-15.7-8.4l48.6-90.4c0.2-0.4,0.1-0.7-0.3-1l-7.4-4c-0.5-0.2-0.8-0.1-1.1,0.3L159.9,309.6L159.9,309.6
		L159.9,309.6z"/>
	<path fill-rule="evenodd" clip-rule="evenodd" fill="#AF182A" d="M188.9,316.7h127.5c2.6,0,4.7,2.1,4.7,4.7v29.3
		c0,2.6-2.1,4.7-4.7,4.7H188.9c-2.6,0-4.7-2.1-4.7-4.7v-29.3C184.2,318.8,186.3,316.7,188.9,316.7L188.9,316.7L188.9,316.7z
		 M190.5,320.8h124c1.4,0,2.6,1.2,2.6,2.6v25.4c0,1.4-1.2,2.6-2.6,2.6H191.1c-1.4,0-2.6-1.2-2.6-2.6v-26
		C188.5,321.7,189.4,320.8,190.5,320.8L190.5,320.8L190.5,320.8z"/>
	<polygon fill-rule="evenodd" clip-rule="evenodd" fill="#AF182A" points="180.4,180.9 223.7,180.9 223.7,171.5 180.4,171.5
		180.4,180.9 	"/>
	<polygon fill-rule="evenodd" clip-rule="evenodd" fill="#AF182A" points="180.4,195.3 223.7,195.3 223.7,185.9 180.4,185.9
		180.4,195.3 	"/>
	<polygon fill-rule="evenodd" clip-rule="evenodd" fill="#AF182A" points="180.4,209.7 223.7,209.7 223.7,200.3 180.4,200.3
		180.4,209.7 	"/>
	<path fill-rule="evenodd" clip-rule="evenodd" fill="#AF182A" d="M346.9,263.4h2.7c0.8,0,1.4,0.5,1.4,1.1v3.1
		c1.4-0.8,2.3-2.2,2.3-3.9v-12.9c0-1.7-0.9-3.1-2.3-3.9v2.5c0,0.6-0.6,1.1-1.4,1.1h-2.7c-0.7,0-1.4-0.5-1.4-1.1v-2.5
		c-1.4,0.8-2.3,2.2-2.3,3.9v12.9c0,1.7,0.9,3.1,2.3,3.9v-3.1C345.5,263.9,346.1,263.4,346.9,263.4L346.9,263.4z M171.4,226.1
		c-1.5,0-3,0.1-3.8,1.3c-2.3,3.7-1.8,13.9-1.8,18h-11.1l-2.8-2.7v-18.6c2.7-4.4,9.5-7.6,22-7.6l27.1,0c0.8,0,1.2,0.7,0.9,1.2
		L187,245.4l-15.6,0V226.1L171.4,226.1L171.4,226.1z M210,250.4h39.5c1.3,0,2.4,1.1,2.4,2.4v2.5c0,1.3-1.1,2.4-2.4,2.4H207
		c2.2,1.8,4.6,5.5,5.8,7.8h3.3c0,0,6.2,3.6,5.4,8.4c-0.7,4.7-2.2,5.8-6.5,9.5c-4.3,3.7-12.3,11.7-15.6,16
		c-3.3,4.4-3.3,10.9,0.4,10.9h52.2v0h52.6c0.5,0,0.9-0.1,1.3-0.4c2.3-1.4,1.9-6.8-0.9-10.6c-3.3-4.4-11.2-12.4-15.6-16
		c-4.4-3.6-5.8-4.7-6.5-9.5c-0.3-1.9,0.5-3.7,1.6-5c0,0,0.1-0.1,0.1-0.1l0,0c0,0,0-0.1,0.1-0.1c0,0,0,0,0,0c0,0,0.1-0.1,0.1-0.1
		c0,0,0,0,0,0c0,0,0.1-0.1,0.1-0.1c0,0,0,0,0,0c0,0,0.1-0.1,0.1-0.1h0c0,0,0.1-0.1,0.1-0.1v0c0,0,0.1-0.1,0.1-0.1l0.1-0.1
		c0,0,0,0,0.1-0.1c1.5-1.5,3-2.4,3-2.4h3.3c1.8-4.1,4.7-7.5,7.6-10.1c4.2-3.7,8.3-5.6,8.3-5.6h9.4c7.9-9,18.1-12.1,28.7-13.9v5.5
		c-3.7,0.3-6.6,3.5-6.6,7.3v17.3c0,3.8,2.9,6.9,6.6,7.3v9.6c-3.7,0.3-6.6,3.5-6.6,7.3V307c0,4,3.3,7.3,7.3,7.3h4.1
		c4,0,7.3-3.3,7.3-7.3v-16.9c0-3.8-2.9-6.9-6.6-7.3v-9.6c3.7-0.3,6.6-3.5,6.6-7.3v-17.3c0-3.8-2.9-6.9-6.6-7.3v-6.4
		c1.3-0.2,2.6-0.5,3.9-0.7c13.6-2.3,13.6-7.3,13.6-6.9v-10.8H218.9l6.2,3.2c0.5,0.2,0.8,0.8,0.4,1.5L210,250.4L210,250.4L210,250.4z
		 M351,288.3v2.4c0,0.6-0.6,1.1-1.4,1.1h-2.7c-0.7,0-1.4-0.5-1.4-1.1v-2.4c-1.4,0.8-2.3,2.2-2.3,3.9v12.6c0,2.5,2,4.5,4.5,4.5h1.1
		c2.4,0,4.5-2,4.5-4.5v-12.6C353.3,290.5,352.4,289,351,288.3L351,288.3z M215.1,295.3h73.5c1.3,0,2.4,1.1,2.4,2.4v2.5
		c0,1.3-1.1,2.4-2.4,2.4h-73.5c-1.3,0-2.4-1.1-2.4-2.4v-2.5C212.6,296.4,213.7,295.3,215.1,295.3L215.1,295.3z M228,279.4h47.7
		c1.3,0,2.4,1.1,2.4,2.4v2.5c0,1.3-1.1,2.4-2.4,2.4H228c-1.3,0-2.4-1.1-2.4-2.4v-2.5C225.5,280.5,226.6,279.4,228,279.4L228,279.4z
		 M229.8,264.5h44c1.3,0,2.4,1.1,2.4,2.4v2.5c0,1.3-1.1,2.4-2.4,2.4h-44c-1.3,0-2.4-1.1-2.4-2.4v-2.5
		C227.4,265.5,228.5,264.5,229.8,264.5L229.8,264.5z M268,250.4h19.7c1.3,0,2.4,1.1,2.4,2.4v2.5c0,1.3-1.1,2.4-2.4,2.4H268
		c-1.3,0-2.4-1.1-2.4-2.4v-2.5C265.6,251.5,266.7,250.4,268,250.4L268,250.4z"/>
	<polygon fill-rule="evenodd" clip-rule="evenodd" fill="#AF182A" points="227.2,180.9 234.7,180.9 234.7,171.5 227.2,171.5
		227.2,180.9 	"/>
	<path fill-rule="evenodd" clip-rule="evenodd" fill="#AF182A" d="M186,162.8c13.2-0.7,27.6-5.2,40.1-11.5l3.9,8.6
		c-13.7,6.6-29.2,11-41.7,11.6L186,162.8L186,162.8z"/>
	<polygon fill-rule="evenodd" clip-rule="evenodd" fill="#AF182A" points="236.1,146.5 229.4,149.8 233.2,158.3 240.1,155
		236.1,146.5 236.1,146.5 	"/>
	<polygon fill-rule="evenodd" clip-rule="evenodd" fill="#AF182A" points="227.2,195.3 234.7,195.3 234.7,185.9 227.2,185.9
		227.2,195.3 	"/>
	<polygon fill-rule="evenodd" clip-rule="evenodd" fill="#AF182A" points="227.2,209.7 234.7,209.7 234.7,200.3 227.2,200.3
		227.2,209.7 	"/>
	<path fill-rule="evenodd" clip-rule="evenodd" fill="#AF182A" d="M280,157.6l13.7-7.6l28.8,52.3l-13.7,7.5L280,157.6L280,157.6z
		 M288.7,164.8l6.2-3.4l1.7,2.9l-6.2,3.4L288.7,164.8L288.7,164.8z M292.2,171.1l6.2-3.4l1.7,2.9l-6.2,3.4L292.2,171.1L292.2,171.1z
		"/>
	<path fill-rule="evenodd" clip-rule="evenodd" fill="#AF182A" d="M263.9,143.3h16.5v66.6h-16.5V143.3L263.9,143.3z M240,137.1h18.4
		v72.7H240V137.1L240,137.1z M245.7,146.5h7.1v3.3h-7.1V146.5L245.7,146.5z M245.7,153.7h7.1v3.3h-7.1V153.7L245.7,153.7z
		 M245.7,160.9h7.1v3.3h-7.1V160.9L245.7,160.9z M245.7,168.1h7.1v3.3h-7.1V168.1L245.7,168.1z M268.6,153.7h7.1v3.3h-7.1V153.7
		L268.6,153.7z M268.6,160.9h7.1v3.3h-7.1V160.9L268.6,160.9z M268.6,168.1h7.1v3.3h-7.1V168.1L268.6,168.1z"/>
	<path fill-rule="evenodd" clip-rule="evenodd" fill="#AF182A" d="M248.8,390.4c-78,0-141.5-63.5-141.5-141.4
		c0-78,63.5-141.5,141.5-141.5c78,0,141.6,63.5,141.6,141.5C390.3,326.8,326.7,390.4,248.8,390.4L248.8,390.4z M421.1,244.2
		l-13.5-1.8c-0.5-0.1-0.9-0.3-1.2-0.7c-0.1-2.2-0.2-4.4-0.3-6.5c0.2-0.4,0.5-0.7,1.1-0.8l13.2-3.5c0.2-0.1,0.4-0.2,0.4-0.7
		c-0.2-1.1-0.3-2.5-0.5-3.9v-0.1v-0.1c-0.2-1.4-0.4-2.7-0.5-3.9c-0.1-0.5-0.3-0.5-0.6-0.5h-13.6c-0.5,0-1-0.2-1.2-0.5
		c-0.4-2.1-0.9-4.2-1.3-6.4c0.2-0.4,0.4-0.7,1-0.9l12.6-5.3c0.2-0.1,0.4-0.2,0.3-0.7c-0.3-1.1-0.5-2.4-1-3.8v-0.1v-0.1
		c-0.4-1.4-0.8-2.7-1.1-3.9c-0.2-0.4-0.4-0.4-0.7-0.4l-13.5,1.8c-0.5,0.1-0.9,0-1.3-0.3c-0.6-2.1-1.3-4.1-2.1-6.1
		c0.2-0.5,0.4-0.9,0.9-1.1l11.9-6.8c0.2-0.1,0.4-0.3,0.2-0.7c-0.3-1.1-0.9-2.4-1.4-3.7l-0.1-0.1v-0.1c-0.6-1.4-1.1-2.5-1.6-3.7
		c-0.2-0.4-0.4-0.4-0.7-0.4l-13.2,3.6c-0.5,0.2-1,0.1-1.4-0.3c-0.9-1.9-1.8-3.8-2.8-5.6c0-0.6,0.3-1,0.7-1.3l10.8-8.2
		c0.2-0.2,0.3-0.4,0.2-0.8c-0.6-1.1-1.2-2.2-1.9-3.4c0,0,0-0.1-0.1-0.1v-0.1c-0.8-1.3-1.4-2.5-2-3.4c-0.3-0.4-0.5-0.4-0.8-0.3
		l-12.6,5.3c-0.5,0.3-1,0.2-1.5-0.1c-1.1-1.8-2.3-3.4-3.4-5.1c-0.2-0.6,0-1.1,0.4-1.5l9.7-9.6c0.2-0.2,0.4-0.4,0.1-0.8
		c-0.7-0.9-1.5-1.9-2.4-3.2h-0.1v-0.1h-0.1c-0.9-1.2-1.7-2.2-2.4-3.2c-0.4-0.4-0.6-0.3-0.8-0.1l-11.8,6.8c-0.5,0.4-1.1,0.4-1.6,0.1
		c-1.3-1.5-2.6-3.1-4-4.6c-0.2-0.5-0.1-1.1,0.3-1.5l8.3-10.8c0.2-0.2,0.3-0.4-0.1-0.8c-0.8-0.9-1.7-1.8-2.7-2.8v-0.1H371v-0.1h-0.1
		c-1-1.1-1.9-1.9-2.8-2.7c-0.4-0.4-0.6-0.2-0.8-0.1l-10.8,8.3c-0.4,0.3-1,0.4-1.5,0.3c-1.5-1.3-3.1-2.7-4.6-3.9
		c-0.3-0.6-0.3-1.1,0.1-1.6l6.8-11.8c0.1-0.2,0.2-0.4-0.2-0.7c-1-0.8-1.9-1.6-3.2-2.5v-0.1H354v-0.1c-1.2-0.9-2.3-1.7-3.2-2.4
		c-0.4-0.3-0.6-0.1-0.8,0.1l-9.7,9.7c-0.4,0.4-0.9,0.6-1.4,0.5c-1.8-1.2-3.4-2.4-5.2-3.5c-0.3-0.4-0.3-1-0.1-1.5L339,102
		c0.1-0.3,0.2-0.5-0.3-0.8c-1-0.6-2.1-1.2-3.4-2h-0.1c0,0,0-0.1-0.1-0.1c-1.2-0.7-2.4-1.3-3.4-1.9c-0.4-0.2-0.6,0-0.8,0.2l-8.3,10.8
		c-0.4,0.5-0.7,0.7-1.3,0.7c-1.8-1-3.7-1.9-5.6-2.8c-0.4-0.4-0.4-0.9-0.3-1.4l3.6-13.2c0-0.2,0.1-0.5-0.4-0.7
		c-1.1-0.4-2.3-1-3.7-1.6h-0.1h-0.1c-1.3-0.6-2.5-1-3.7-1.5c-0.4-0.2-0.6,0.1-0.7,0.3l-6.8,11.8c-0.3,0.5-0.6,0.8-1.1,0.9
		c-2-0.8-4-1.5-6.1-2.1c-0.3-0.4-0.4-0.8-0.3-1.3l1.8-13.5c0-0.3,0-0.5-0.4-0.6c-1.1-0.4-2.5-0.7-3.9-1.1v-0.1h-0.1h-0.1
		c-1.4-0.4-2.6-0.7-3.8-1c-0.5-0.1-0.6,0.1-0.7,0.4l-5.3,12.6c-0.2,0.5-0.4,0.8-0.9,1c-2.2-0.4-4.3-0.9-6.4-1.3
		c-0.3-0.3-0.5-0.7-0.5-1.2V78.7c0-0.2,0-0.5-0.5-0.5c-1.1-0.3-2.5-0.4-3.9-0.6h-0.1h-0.1c-1.5-0.2-2.8-0.3-4-0.4
		c-0.5-0.1-0.6,0.2-0.6,0.3l-3.6,13.2c-0.1,0.5-0.3,0.9-0.8,1.1c-2.1-0.2-4.3-0.3-6.5-0.4c-0.4-0.3-0.6-0.7-0.6-1.2l-1.8-13.5
		c-0.1-0.2-0.2-0.4-0.6-0.4c-0.6-0.1-1.2-0.1-1.9-0.1h-0.2h-0.1h-0.2h-0.1h-0.1h-0.1h-0.1H250h-0.1h-0.1h-0.2h-0.1h-0.3h-0.1h-0.1
		H249h-0.1h-0.1h-0.1h-0.1h-0.1h-0.1h-0.1h-0.1h-0.1h-0.1h-0.1H248h-0.1h-0.1h-0.1h-0.1h-0.1h-0.1h-0.1h-0.1h-0.1h-0.6
		c-0.7,0-1.3,0-1.9,0.1c-0.4,0-0.5,0.3-0.5,0.4l-1.8,13.5c-0.1,0.5-0.3,1-0.7,1.2c-2.2,0.1-4.3,0.3-6.5,0.4
		c-0.3-0.3-0.6-0.6-0.7-1.1l-3.5-13.2c-0.1-0.2-0.2-0.4-0.6-0.3c-1.2,0.1-2.5,0.3-4,0.4h-0.1h-0.1c-1.5,0.2-2.8,0.4-4,0.6
		c-0.4,0-0.5,0.4-0.5,0.5v13.6c0.1,0.5-0.1,1-0.4,1.2c-2.2,0.4-4.3,0.9-6.4,1.3c-0.5-0.2-0.8-0.4-1-1l-5.2-12.6
		c-0.1-0.3-0.3-0.4-0.7-0.4c-1.1,0.3-2.5,0.6-3.9,1h-0.1c-0.1,0-0.1,0-0.1,0.1c-1.4,0.3-2.7,0.7-3.8,1.1c-0.5,0.1-0.4,0.3-0.4,0.6
		l1.8,13.5c0.1,0.5,0,1-0.4,1.3c-2,0.6-4.1,1.3-6.1,2.1c-0.4-0.1-0.8-0.4-1.1-0.9L187.1,88c-0.1-0.2-0.3-0.4-0.7-0.3
		c-1.1,0.4-2.3,0.9-3.7,1.5h-0.1h-0.1c-1.3,0.6-2.5,1.1-3.6,1.6c-0.4,0.2-0.4,0.5-0.3,0.7l3.5,13.2c0.2,0.5,0.1,1-0.2,1.4
		c-1.9,0.9-3.9,1.8-5.7,2.8c-0.5,0-1-0.2-1.3-0.7l-8.2-10.8c-0.2-0.2-0.3-0.4-0.8-0.2c-1,0.6-2.2,1.2-3.4,1.9v0.1h-0.1h-0.1
		c-1.2,0.8-2.4,1.4-3.4,2c-0.4,0.3-0.3,0.5-0.2,0.8l5.2,12.5c0.3,0.5,0.3,1.1-0.1,1.5c-1.7,1.1-3.4,2.3-5.1,3.5
		c-0.6,0.1-1.1-0.1-1.5-0.5l-9.6-9.7c-0.2-0.2-0.4-0.3-0.8-0.1c-1,0.7-2,1.5-3.2,2.4l-0.1,0.1h-0.1v0.1c-1.1,0.9-2.2,1.7-3.1,2.5
		c-0.4,0.3-0.3,0.5-0.2,0.7l6.8,11.8c0.3,0.5,0.4,1,0.1,1.6c-1.6,1.2-3.1,2.6-4.6,3.9c-0.6,0.2-1.1,0.1-1.6-0.3l-10.8-8.3
		c-0.2-0.1-0.4-0.3-0.8,0.1c-0.9,0.8-1.8,1.7-2.8,2.7l-0.1,0.1c0,0,0,0.1-0.1,0.1c-1,1-1.9,1.9-2.7,2.8c-0.4,0.4-0.2,0.6-0.1,0.8
		l8.3,10.8c0.4,0.4,0.4,1,0.3,1.5c-1.3,1.5-2.6,3.1-4,4.6c-0.6,0.3-1.1,0.3-1.6-0.1l-11.9-6.8c-0.2-0.2-0.4-0.3-0.7,0.1
		c-0.8,1-1.6,1.9-2.5,3.2h-0.1v0.1c-1,1.2-1.8,2.3-2.4,3.2c-0.3,0.4-0.2,0.6,0,0.8l9.7,9.6c0.4,0.4,0.6,0.9,0.5,1.5
		c-1.2,1.7-2.4,3.3-3.5,5.1c-0.4,0.3-1,0.4-1.5,0.1l-12.6-5.3c-0.2-0.1-0.4-0.2-0.7,0.3c-0.6,1-1.3,2.1-2,3.4h-0.1v0.1v0.1
		c-0.8,1.2-1.4,2.4-1.9,3.4c-0.3,0.4-0.1,0.6,0.1,0.8l10.9,8.2c0.4,0.4,0.6,0.7,0.6,1.3c-1,1.8-1.8,3.7-2.8,5.6
		c-0.4,0.4-0.9,0.4-1.4,0.3l-13.2-3.6c-0.2,0-0.4-0.1-0.7,0.4c-0.4,1.1-1,2.3-1.5,3.7h-0.1v0.1v0.1c-0.6,1.3-1.1,2.5-1.5,3.7
		c-0.2,0.4,0.1,0.6,0.3,0.7l11.8,6.8c0.5,0.3,0.8,0.6,0.9,1.1c-0.8,2-1.4,4-2.1,6.1c-0.4,0.3-0.8,0.4-1.3,0.3l-13.5-1.8
		c-0.2,0-0.5,0-0.6,0.4c-0.3,1.1-0.7,2.5-1.1,3.9h-0.1v0.1v0.1c-0.4,1.4-0.7,2.6-1,3.8c-0.1,0.5,0.2,0.6,0.4,0.7l12.6,5.3
		c0.5,0.2,0.8,0.4,1,0.9c-0.4,2.2-0.9,4.3-1.2,6.4c-0.4,0.4-0.8,0.5-1.3,0.5H78.6c-0.2,0-0.4,0-0.5,0.5c-0.2,1.1-0.4,2.5-0.6,3.9
		v0.1v0.1c-0.2,1.5-0.4,2.8-0.4,3.9c-0.1,0.5,0.2,0.6,0.4,0.7l13.2,3.5c0.5,0.1,0.9,0.3,1.1,0.8c-0.2,2.1-0.3,4.3-0.4,6.5
		c-0.3,0.4-0.6,0.6-1.2,0.7l-13.5,1.8c-0.2,0-0.4,0.1-0.4,0.5c-0.1,1.2-0.1,2.5-0.1,3.9v0.1v0.1v0.1c0,1.4,0,2.7,0.1,3.9
		c0,0.4,0.3,0.5,0.4,0.5l13.5,1.8c0.6,0.1,1,0.3,1.2,0.7c0.1,2.2,0.3,4.3,0.4,6.5c-0.3,0.4-0.6,0.7-1.1,0.8l-13.2,3.5
		c-0.2,0.1-0.4,0.2-0.4,0.7c0.1,1.1,0.3,2.5,0.4,3.9v0.1v0.1v0.1c0.2,1.4,0.3,2.7,0.6,3.9c0,0.5,0.4,0.5,0.5,0.5h13.6
		c0.5,0,1,0.1,1.3,0.4c0.3,2.2,0.8,4.3,1.2,6.5c-0.2,0.4-0.4,0.7-1,0.9L81.2,289c-0.3,0.1-0.4,0.2-0.4,0.7c0.3,1.1,0.6,2.4,1,3.8
		v0.1v0.1h0.1c0.4,1.4,0.7,2.7,1.1,3.9c0.1,0.4,0.4,0.4,0.6,0.4l13.5-1.8c0.5-0.1,1,0,1.3,0.4c0.6,2.1,1.3,4.1,2.1,6.1
		c-0.1,0.5-0.4,0.9-0.9,1.1l-11.8,6.8c-0.2,0.1-0.4,0.3-0.3,0.7c0.4,1.1,0.9,2.4,1.5,3.7v0.1v0.1c0.6,1.4,1.1,2.5,1.6,3.7
		c0.2,0.4,0.5,0.4,0.7,0.3l13.2-3.5c0.5-0.2,1-0.1,1.4,0.3c0.9,1.8,1.8,3.8,2.8,5.6c0,0.6-0.2,1-0.7,1.3l-10.8,8.2
		c-0.2,0.2-0.4,0.3-0.2,0.8c0.6,1.1,1.2,2.2,1.9,3.4c0.1,0,0.1,0.1,0.1,0.1v0.1h0.1c0.7,1.3,1.4,2.5,2,3.4c0.2,0.4,0.4,0.4,0.7,0.3
		l12.6-5.3c0.5-0.3,1-0.2,1.5,0.1c1.1,1.8,2.3,3.4,3.5,5.1c0.1,0.6-0.1,1.1-0.5,1.5l-9.7,9.7c-0.2,0.2-0.3,0.3,0,0.8
		c0.6,0.9,1.4,1.9,2.3,3.2h0.1v0.1h0.1c0.9,1.2,1.7,2.2,2.5,3.2c0.3,0.4,0.5,0.3,0.7,0.1l11.9-6.8c0.5-0.3,1-0.3,1.6-0.1
		c1.3,1.5,2.6,3.1,4,4.6c0.2,0.5,0.1,1.1-0.3,1.5l-8.3,10.8c-0.1,0.2-0.3,0.4,0.1,0.8c0.8,0.9,1.7,1.8,2.7,2.8c0,0,0,0.1,0.1,0.1
		v0.1h0.1c1.1,1.1,1.9,1.9,2.8,2.7c0.4,0.4,0.6,0.2,0.8,0.1l10.8-8.3c0.4-0.4,1-0.4,1.5-0.3c1.5,1.3,3.1,2.7,4.6,4
		c0.3,0.6,0.3,1.1-0.1,1.6l-6.8,11.8c-0.2,0.2-0.3,0.4,0.1,0.8c1,0.7,2,1.5,3.2,2.4v0.1h0.1v0.1c1.2,0.9,2.3,1.7,3.2,2.4
		c0.4,0.3,0.5,0.1,0.7-0.1l9.7-9.7c0.4-0.4,0.9-0.6,1.5-0.5c1.7,1.2,3.3,2.4,5.1,3.5c0.3,0.4,0.3,1,0.1,1.5l-5.3,12.5
		c-0.1,0.3-0.1,0.5,0.3,0.8c1,0.6,2.1,1.2,3.4,2h0.1c0,0.1,0.1,0.1,0.1,0.1c1.2,0.7,2.4,1.3,3.4,1.9c0.4,0.2,0.6,0,0.8-0.2l8.2-10.8
		c0.4-0.5,0.7-0.7,1.3-0.7c1.8,1,3.8,1.9,5.6,2.8c0.4,0.4,0.4,0.9,0.3,1.4l-3.5,13.1c-0.1,0.3-0.1,0.5,0.3,0.7
		c1.1,0.4,2.2,1,3.6,1.6h0.1c0.1,0,0.1,0,0.1,0.1c1.3,0.5,2.5,1,3.7,1.4c0.4,0.2,0.6,0,0.7-0.3L194,398c0.2-0.5,0.5-0.8,1.1-0.9
		c2,0.8,4,1.5,6.1,2.1c0.4,0.3,0.4,0.8,0.4,1.3l-1.8,13.4c0,0.3,0,0.5,0.4,0.6c1.1,0.3,2.5,0.7,3.9,1.1h0.1h0.1
		c1.4,0.4,2.7,0.7,3.8,1c0.5,0.2,0.6-0.1,0.7-0.3l5.3-12.6c0.2-0.4,0.4-0.7,0.9-0.9c2.2,0.4,4.3,0.9,6.5,1.2
		c0.4,0.3,0.4,0.7,0.4,1.2V419c0,0.3,0,0.5,0.5,0.6c1.1,0.2,2.5,0.4,3.9,0.5h0.1h0.1h0.1c1.4,0.3,2.7,0.4,3.9,0.5
		c0.5,0,0.6-0.3,0.7-0.4l3.5-13.2c0.1-0.5,0.4-0.9,0.7-1.1c2.1,0.2,4.3,0.3,6.5,0.3c0.4,0.4,0.6,0.7,0.7,1.2l1.8,13.5
		c0,0.2,0.1,0.4,0.5,0.5h2.5h0.1h0.1h0.1h0.1h0.1h0.1h0.1h0.1h0.1h0.1h0.1h0.1h0.1h0.1h0.1h0.1h0.1h0.1h0.1h0.1h0.1h0.1h0.1h0.1h0.3
		h0.1h0.2h0.1h0.1h0.1h0.1h0.1h0.1h0.1h0.2h0.1h0.2h1.2h0.2h0.1h0.4c0.4-0.1,0.5-0.3,0.6-0.5l1.8-13.5c0-0.5,0.3-0.9,0.6-1.2
		c2.2-0.1,4.4-0.2,6.5-0.3c0.4,0.2,0.7,0.5,0.9,1.1l3.5,13.2c0,0.2,0.2,0.4,0.6,0.4c1.1-0.2,2.5-0.3,4-0.5h0.1h0.1
		c1.5-0.2,2.7-0.4,4-0.5c0.4-0.1,0.4-0.4,0.4-0.6v-13.6c0-0.5,0.2-1,0.5-1.2c2.1-0.4,4.3-0.8,6.4-1.2c0.4,0.2,0.8,0.4,1,0.9
		l5.2,12.6c0.1,0.2,0.3,0.4,0.7,0.3c1.1-0.3,2.4-0.5,3.9-1h0.1h0.1c1.4-0.4,2.6-0.8,3.8-1.1c0.4-0.1,0.4-0.3,0.4-0.6l-1.8-13.4
		c-0.1-0.5,0.1-1,0.3-1.3c2.1-0.6,4.1-1.3,6.1-2.1c0.5,0.1,0.9,0.3,1.1,0.9l6.8,11.7c0.2,0.3,0.4,0.4,0.8,0.3
		c1.1-0.4,2.3-0.9,3.7-1.4v-0.1h0.1c1.4-0.6,2.6-1.1,3.7-1.6c0.4-0.2,0.4-0.4,0.4-0.7l-3.6-13.1c-0.1-0.5-0.1-1,0.3-1.4
		c1.9-0.9,3.8-1.8,5.7-2.8c0.5,0,1,0.2,1.2,0.7l8.3,10.8c0.1,0.2,0.4,0.4,0.7,0.2c1.1-0.6,2.2-1.2,3.5-1.9v-0.1h0.1
		c1.3-0.8,2.5-1.4,3.4-2c0.4-0.3,0.4-0.5,0.3-0.8l-5.2-12.5c-0.3-0.5-0.3-1.1,0-1.5c1.8-1.1,3.5-2.3,5.2-3.5c0.5-0.1,1,0.1,1.4,0.5
		l9.7,9.7c0.2,0.2,0.3,0.3,0.8,0.1c1-0.7,2-1.5,3.2-2.4V386h0.1c0,0,0-0.1,0.1-0.1c1.1-0.9,2.2-1.7,3.1-2.4c0.3-0.4,0.3-0.6,0.2-0.8
		l-6.8-11.8c-0.3-0.4-0.3-1-0.1-1.6c1.6-1.2,3.1-2.6,4.6-4c0.6-0.2,1.1-0.1,1.6,0.3l10.8,8.3c0.2,0.1,0.3,0.3,0.7-0.1
		c0.9-0.8,1.8-1.7,2.9-2.7V371h0.1V371c1.1-1,2-1.9,2.8-2.8c0.3-0.3,0.2-0.6,0-0.8l-8.3-10.8c-0.4-0.4-0.5-1-0.3-1.5
		c1.4-1.5,2.7-3.1,4-4.6c0.5-0.3,1-0.3,1.6,0.1l11.8,6.8c0.2,0.2,0.4,0.3,0.8-0.1c0.7-1,1.5-1.9,2.5-3.2V354h0.1
		c0.9-1.2,1.7-2.3,2.4-3.2c0.3-0.4,0.1-0.6-0.1-0.8l-9.7-9.7c-0.4-0.4-0.5-0.9-0.4-1.5c1.1-1.7,2.3-3.3,3.4-5.1
		c0.5-0.3,1-0.4,1.5-0.1l12.6,5.3c0.2,0.1,0.4,0.1,0.7-0.3c0.6-1,1.2-2.1,2-3.4v-0.1h0.1v-0.1c0.7-1.2,1.4-2.4,1.9-3.4
		c0.3-0.4,0-0.6-0.2-0.8l-10.8-8.2c-0.4-0.4-0.7-0.7-0.7-1.3c1-1.8,1.9-3.8,2.8-5.6c0.4-0.4,0.9-0.4,1.4-0.3l13.2,3.5
		c0.3,0.1,0.5,0.1,0.7-0.3c0.5-1.1,1.1-2.3,1.6-3.7V315l0.1-0.1c0.5-1.3,1.1-2.5,1.4-3.7c0.2-0.4,0-0.6-0.2-0.7l-11.9-6.8
		c-0.4-0.2-0.7-0.5-0.8-1.1c0.7-2,1.4-4,2-6.1c0.4-0.4,0.8-0.4,1.3-0.4L414,298c0.3,0,0.5,0,0.7-0.4c0.3-1.1,0.6-2.5,1.1-3.9v-0.1
		v-0.1c0.4-1.4,0.7-2.7,1-3.8c0.2-0.5-0.1-0.6-0.3-0.7l-12.6-5.3c-0.5-0.2-0.8-0.4-1-0.9c0.5-2.2,0.9-4.3,1.3-6.5
		c0.3-0.3,0.7-0.4,1.2-0.4H419c0.3,0,0.5,0,0.6-0.5c0.2-1.1,0.3-2.5,0.5-3.9v-0.1v-0.1v-0.1c0.3-1.4,0.3-2.7,0.5-3.9
		c0-0.5-0.3-0.6-0.4-0.7l-13.2-3.5c-0.5-0.1-0.9-0.3-1.1-0.8c0.2-2.2,0.3-4.3,0.3-6.5c0.3-0.4,0.7-0.6,1.2-0.7l13.5-1.8
		c0.2,0,0.4-0.1,0.5-0.5V249v-0.1v-0.1v-0.1v-3.9C421.6,244.3,421.3,244.2,421.1,244.2L421.1,244.2z"/>
	<path fill-rule="evenodd" clip-rule="evenodd" fill="#AF182A" d="M236.1,341.3c0,0.6-0.6,1.2-1.3,1.2h-12.4c-0.7,0-1.3-0.5-1.3-1.2
		v-2.5c0-0.6,0.6-1.1,1.3-1.1h12.4c0.7,0,1.3,0.5,1.3,1.1V341.3L236.1,341.3z M221.3,330.6c0-0.6,0.6-1.1,1.3-1.1h12
		c0.7,0,1.3,0.5,1.3,1.1v2.4c0,0.6-0.6,1.1-1.3,1.1h-12c-0.7,0-1.3-0.5-1.3-1.1V330.6L221.3,330.6z M240.1,335.9l-0.2-0.1l-0.4-0.2
		l0.4-0.2l0.2-0.1c1-0.5,1.6-1.5,1.6-2.7V329c0-1.6-1.4-2.9-3.1-2.9h-20.3c-1.6,0-2.9,1.3-2.9,2.9v3.7c0,1.2,0.6,2.2,1.6,2.7
		l0.2,0.1l0.4,0.2l-0.4,0.2l-0.2,0.1c-1.1,0.4-1.9,1.5-1.9,2.8v4.3c0,1.6,1.2,2.9,2.7,2.9h21.4c1.5,0,2.7-1.3,2.7-2.9v-4.3
		C242,337.4,241.2,336.3,240.1,335.9L240.1,335.9z"/>
	<path fill-rule="evenodd" clip-rule="evenodd" fill="#AF182A" d="M207.2,345.9h-6.3v-15c0-0.6-0.5-0.6-0.7-0.6
		c-0.3,0-0.7,0.1-1,0.2l-4.7,1.1V328l4.9-1.3c0.2-0.1,0.4-0.1,0.7-0.2c0.8-0.2,1.7-0.5,2.5-0.5h3.8c0.5,0,0.8,0.3,0.8,0.8V345.9
		L207.2,345.9z"/>
	<path fill-rule="evenodd" clip-rule="evenodd" fill="#AF182A" d="M64.2,145.2c-1.5-1.7,1.6-6.6,3.2-3.6
		C67.6,143.7,65.6,145.7,64.2,145.2L64.2,145.2z M97,122.2c-2.7,0.1-12.2,1.5-14.2,2.6c-4.8,2.6-6.7,5.1-9.7,9.6
		c-1.2,1.8-2.5,4.3-4.6,2.4c-1.5-1.4-3.1,0.7-4.8,0.2c-1.9-0.6-1.9-2.3-2.6-3.8c-1.1-2.1-3.6,0.2-5,0.4c-1.1-0.8-0.4-4-1.5-4.8
		c-3.7-0.1-4.5,2.3-3.7,5.3c0.9,3.2-2.1,5-1.9,8.1c1,1,2.5,0.7,3.6,0c1.4,0.6,1.9,2.2,2.4,3.5c0.7,2.2,1.7,1,3.5,0.9
		c8.8-0.4,2.7,10.5,1.5,14.8c-0.6,2.3-1.5,5.6-0.2,7.9c0.8,1.4,3,5.6,3.4,6.5c2,3.4,11.9,8.3,8.5,0.7c-2.3-4.9-6.8-7.8-5.9-13.7
		c1-6.9,2.3-11.9,5.1-18.2c2.4-5.2,7.3-9.6,11.6-13c2.2-1.7,4.4-3.1,7.2-3.1c2.8,0,5.9,1,8.6-0.2C99.4,126.6,98.3,123.5,97,122.2
		L97,122.2z M82.1,155.7C82.1,155.7,82.1,155.7,82.1,155.7c-0.3,3.8-3.7,4-4,2.7c-0.3-0.9,1.7-5.1,3.6-4c0.2,0.1,0.5,0.7,0.5,0.9
		c0,0.1,0,0.2,0,0.3C82.1,155.6,82.1,155.6,82.1,155.7L82.1,155.7z M75.2,153.8c-1.8-2.6,1.4-5.8,2.1-8.4c0.3-0.4,0.5-1,1.2-1.1
		c0.7,0,0.1-0.1,1.4,0.7C81.3,145.9,77,156.4,75.2,153.8L75.2,153.8z M88.6,135.3c-0.2,0-0.5,0.4-0.5,0.5
		c-1.3,2.9,1.5,12.2-3.2,12.3c-1.6-2.6,1.2-7.9-2.6-9.6c-2.9-1.3-4.9,0.5-6.3,2.9c-2.9,5-6.3,10.8-5.7,17.2c0.9,1.7,3.4,1.5,4.4,3.1
		c-0.7,2-3.3,2.6-2.5,5.7c0,0.1,0.4,0.5,0.5,0.6c7.8,3.1,7.7-7.2,13.3-6.4c1,0.8-0.4,4.1,1.1,5.3c4.4,0.5,6.7-5.9,4.7-9.2
		c-3-5-0.6-6.5,0.9-11.4c0.4-3.4,3.9-6.5,1-10.1C93.1,135.2,89.7,135.1,88.6,135.3L88.6,135.3z M57.5,126.3c1.1-0.8,1.5-0.7,2.1-2
		c0.6-1.3,1.5-2.3,3-2.3c1.8,2.2-2,5.7,0.9,7.6c2.9,0.2,1.8-2.6,4.7-2.4c2.3,3.1-2.2,4.1-0.8,7.8c4.6,1.5,6-5,5.8-8.2
		c-0.1-2.2-0.6-5.3-2.3-6.8c-1.8-1.6-4.4-3.7-6.7-4.6c-3.3-1.3-5.3,1.1-6.6,3.7c-1.3,2.5-3.8,4.8-3.7,7.9
		C54.1,129,56.7,126.8,57.5,126.3L57.5,126.3z M58.3,150.1c-0.1-0.2-1-0.4-1.2-0.4c-3,0.6-3.2,6.3-4.8,5.1c-1.6-1.1,1-4.8-0.8-6.7
		c-5.5-1.3-2.2,5.5-5.8,7.5c-0.9-0.3-1.5-0.3-1.7-1.1c-0.2-0.8,3.7-7.3,2.4-8c-3.5-2.3-3.8,1.3-4,3.9c-0.1,1.1-0.8,2.9-0.9,3.1
		c-2,3.5,0.7,5.6,4.1,6.9c2.7,1.1,8.4,2.8,10.4,0.1C57.8,158.1,60.4,153.1,58.3,150.1L58.3,150.1z"/>
	<path fill-rule="evenodd" clip-rule="evenodd" fill="#AF182A" d="M342,51.5c-0.1,0-0.4-0.3-0.5-0.4c-2.4-2.8-7.5-4.8-11.3-5
		c-0.2,0-0.6-0.1-0.8-0.2c0,0-0.2-0.2-0.2-0.2c-0.8-0.8-2-4.2,0.8-3.3c3,1,3,1.2,5.2,2c2,0.7,5.3,1.8,7.1,2.6c0.1,0,0.1,0.1,0.2,0.1
		c0.1,0.1,0.3,0.1,0.4,0.2l0,0c0.3,0.2,0.6,0.4,0.9,0.6C346,50,345.2,52.3,342,51.5L342,51.5z M333.5,59.5c0.6-3.6,5.2,0.3,4.1,2.7
		c-0.1,0.1-0.4,0.3-0.5,0.3c-0.6-0.2-1.1-0.6-1.5-1C334.9,60.8,333.5,59.6,333.5,59.5L333.5,59.5z M339.1,69.9
		c-0.8,2.2-6.7-1.7-6.6-4.5c0-0.1,0.1-0.4,0.2-0.4C334.5,64.8,339.8,67.6,339.1,69.9L339.1,69.9z M334.5,79.6
		c-0.1,0.1-0.6,0.4-0.8,0.5c-3.2,0.1-8.1-1.5-8.2-5.2c0-2.1,1.6-3.3,3.5-3.6c0.7-0.1,1.3,0.1,1.8,0.4c0.9,0.5,1.8,0.8,2.6,1.4
		c0.2,0.1,0.4,0.3,0.5,0.4C336.1,75.1,336.1,77.4,334.5,79.6L334.5,79.6z M323.2,64.3c-0.9-0.4-4.2-2.2-3.8-3.5
		c0.4-1.1,2.2-1.8,5.9,0.7c0.1,0.1,0.4,0.8,0.4,1C325.5,63.9,325.3,65.2,323.2,64.3L323.2,64.3z M316.7,72.9c-2-1.2-3.4-3.4-3-4.4
		c2-3.4,9.1-2.9,9.2,1.7C322.9,73,318.6,74.1,316.7,72.9L316.7,72.9z M324.5,56.1c0.7-1.9,3.5-0.8,3.9,0.8c0,0.1-0.2,0.4-0.4,0.5
		c-1.3,0.2-2.3,0.3-3.5-0.8C324.5,56.5,324.4,56.2,324.5,56.1L324.5,56.1z M305,64.2c0.7-0.7,1.9-1.5,4,0.3c0.1,0.1,0.4,0.6,0.4,0.7
		C310.2,71.4,300.5,68.7,305,64.2L305,64.2z M295.5,67.7c-2-0.9,1-12.1,4.7-9.6C303.8,60.6,297.4,68.5,295.5,67.7L295.5,67.7z
		 M349.6,46c-7-4-14.2-7-22.1-8.4c-3.9-0.7-7.6,7.7-3.7,10c1.6,0.9,7.6,0.6,7.4,3.2l0,0c-0.3,1.6-6.2-1.5-10.9,1.2
		c-0.3,0.2-0.5,0.3-0.6,0.4c-1.4,0.9-2.6,2.6-3.9,3.8c-1.3,1.2-3.3,4-5.4,3.7c-1.7-0.3-4.6-3.1-4.4-3.4c0.8-1.5,2.9-0.6,4.3-2.3
		c2.4-3.1,1.9-6.8,3.3-10.3c1.5-3.7,7.5-2.7,7.5-8c0-2.2-2-3.4-3.5-4.9l-1.8-1.3c-0.9-0.5-4.5-0.5-3.9,2.2c0.3,1.3,2.7,5,0.3,5.6
		c-3.2,0.8-7.8-0.6-10.9-1.4c-0.5-0.1-4.5-1.5-5.1-1.4c-0.5,0.1-0.9,0.2-1.2,0.5c-1.3,1.3-1.2,3.7-0.1,5c0,0,0,0,0.1,0.1
		c0.1,0.1,0.2,0.2,0.3,0.2c0.7,0.2,3.3,0.3,3.3,0.3c1.5,0,4.1,0.6,6,1.4v0c2.1,1,3.2,1.7,0.9,2.4c0,0-0.1,0-0.1,0c0,0,0,0,0,0
		c-3.2,1.1-9-1.7-12.3-0.1c-0.1,0.1-0.3,0.2-0.4,0.3c-0.3,0.5-1.2,2.3-0.1,2.9c1,0.5,2.4,0.8,3.2,0.9c0.6,0.1,4.7,0,6.6-0.1
		c0.6,0,1.3-0.2,1.5-0.3c0.3-0.2,0.7-0.3,1.1-0.3c1.4-0.2,2.5,0.1,1.9,1.7c-0.8,2.1-8.4,4.2-10.4,3.7c-2-0.5-4.2,2.2-4.3,2.6
		c-0.4,1.8-0.2,3.9-1,5.8c-1.1,2.6-3.5,6.2-2.2,9.1c0.3,0.9,6.2,1.2,13,2.2c0.5,0.1,0.9,0.1,1.4,0.2c4.3,0.7,8.8,1.6,12.3,3.1
		c1.4,0.6,2.5,1.1,3.5,1.4c4.9,2.5,10,5.7,10.8,6.6c3.9,4.5,10,12,12.3,8.8c-0.2-3.2-2-5.5-3.3-8.2c-0.6-1.2,1-1.7,1.6-2.4
		c2.3-2.9,2.9-7.4,3.6-10.9c0.6-2.9,1.1-5.9,1.8-8.8c0.9-3.3-3.7-5.6-6.6-6.5c-0.4-0.1-1.1-0.9-1-1.1c0.5-2.4,4.9-0.5,7.6,1.3
		c1,0.7,3.7,0.5,4.3-0.4c0.8-1.4,1.4-3.3,2.1-4.4C353.9,48.6,351.8,47.3,349.6,46L349.6,46z"/>
	<path fill="#AF182A" d="M30.9,261.8c-0.1-1.5,0-5,0-7.4c1.4,0.2,3.1,0.3,4.9,0.3l0,0.2c-1.5,1.9-2.4,4.4-2.3,7.2
		c0.2,2.4,1.4,3.9,3.5,3.8c1.5-0.1,2.4-0.8,3.3-2.2c1.4-2.1,2.3-4.6,4-7c1.9-2.6,3.9-3.2,6.3-3.4c2.4-0.2,7,0.9,7.6,9.7
		c0.1,1.7,0.2,4.3,0.1,6.5c-1.2-0.3-3-0.5-4.7-0.7l0-0.2c1.3-1.2,2.2-2.6,2-5.7c-0.2-2.9-1.9-4.3-3.6-4.2c-2.1,0.1-3.3,0.5-5.7,5.7
		c-3,6.4-5,6.7-7.4,6.9C35.9,271.4,31.4,270.1,30.9,261.8L30.9,261.8z"/>
	<path fill="#AF182A" d="M49.4,296.6c-3.1,0.5-10.1,2-13,3.1c-0.2-1.6-0.3-2.1-0.5-3.3c-0.2-0.9-0.3-1.7-0.8-3.7
		c3.7-0.4,9.3-1.2,12.2-1.8c-0.3-1.9-0.4-2.9-0.7-4.4c-0.3-1.5-0.6-2.9-1-4.5c-4.3,0.8-8,1.6-12,2.8c-0.2-1.5-0.4-2.6-0.5-3.3
		c-0.2-0.9-0.3-1.7-0.8-3.6c3.7-0.3,10.2-1.3,13.1-1.8c2.8-0.5,12.2-2,13-3.5l0.2,0c0.2,1.6,0.4,2.6,0.6,3.8
		c0.2,1.2,0.5,2.4,0.8,3.6c-2.7,0-6.5,0.7-11.4,1.6c0.3,2.1,0.4,3,0.7,4.5c0.3,1.5,0.4,2.2,0.9,4.4c5.9-1.1,8.7-1.6,11-3.1l0.1,0
		c0.1,1.3,0.3,2.3,0.6,3.8c0.2,1.1,0.5,2.6,0.8,3.6C59.3,294.9,52.9,295.9,49.4,296.6L49.4,296.6z"/>
	<path fill="#AF182A" d="M61.3,309l0-0.2c-3.4-0.1-6.4,0-9.6,0.1c0.2,1,0.5,1.8,0.8,2.7c0.4,1.3,0.6,1.8,1,2.8
		C56.1,312.7,58.9,310.8,61.3,309L61.3,309z M44.1,324.2c-0.4-1.2-0.8-2.3-1.3-3.6c2.7-1,6.6-3.5,8.4-4.7c-0.3-1.3-0.7-2.4-1.1-3.6
		c-0.4-1.1-0.9-2.4-1.2-3.2c-2.2,0-7,0.4-9.4,1.6c-0.4-1.4-0.5-2-0.9-3c-0.3-1.1-0.7-2-1.1-3.1c1.7,0.3,4.6,0.6,5.9,0.7
		c2.6,0.2,6.2,0.3,9.1,0.4c2.6,0.1,6.7,0.1,9.9,0.1c0.9,0,2.4,0,3.2-0.5l0.2-0.1c0.4,1.3,0.8,2.2,1.1,3c0.4,1.1,0.9,2.2,1.4,3.4
		c-0.8,0.4-2.1,1.2-3.3,2c-2.4,1.6-5.4,3.6-7.6,5.2c-3.8,2.6-5.9,4.2-7.7,5.6c-0.8,0.6-2.7,2.2-4.3,3.9
		C44.8,326.5,44.5,325.3,44.1,324.2L44.1,324.2z"/>
	<path fill="#AF182A" d="M67.6,345.7c-1.6,0.8-8.5,4-11.3,5.7c-0.7-1.6-1.5-3-2.4-4.3c2-3.2,6-9,7.8-11.5l5.4-7.6l-0.1-0.1l-7,3.3
		c-1.3,0.6-8.3,4.5-10.5,6.3c-0.4-0.9-0.7-1.7-1.1-2.6c-0.4-0.8-0.9-1.7-1.3-2.5c3.9-0.8,13.3-5.2,15.1-6c1.4-0.7,7.1-3.2,9-5.3
		l0.2-0.1c0.4,1.1,1,2.3,1.5,3.5c0.6,1.2,1.2,2.4,1.7,3.3c-1.4,1.6-4.3,5.3-5.8,7.4c-2.8,4.1-4.5,6.6-6.1,8.9l0.1,0.1l4.6-2.2
		c2.7-1.3,9.5-5,10.8-6.5c0.3,0.7,0.7,1.8,1.1,2.6c0.5,1.1,0.6,1.2,1.3,2.4C77.3,341.3,69.5,344.8,67.6,345.7L67.6,345.7z"/>
	<path fill="#AF182A" d="M77.3,373.2c-0.9,0.5-2.7,1.7-4.5,3.1c-2.7-2.8-4.2-4.7-6.1-7.7c-4.7-7.2-3.9-12.8,4.4-18.3
		c5.1-3.4,12.5-5.5,19,4.3c1.8,2.7,3.7,5.9,4.5,7.5c-1.8,0.5-3.3,1.1-5,1.9l-0.2-0.2c0.6-2.2,0.2-5.2-1.7-8.1
		c-3-4.5-7.8-3.7-13.2-0.2c-7.5,5-7.5,8.5-4.7,12.7c1.3,1.9,2.4,1.4,3.4,0.8l2.4-1.6c1.1-0.7,2.4-1.6,3.3-3.3l0.2-0.1
		c0.6,1,1.3,2.1,1.9,3.2c0.9,1.3,1.1,1.7,2,2.9C81.7,370.6,79,372.1,77.3,373.2L77.3,373.2z"/>
	<path fill="#AF182A" d="M100.9,390.1c-2.4,2-7.6,6.8-9.6,9.3c-1-1.3-1.3-1.7-2.1-2.6c-0.6-0.7-1.2-1.3-2.6-2.7
		c3-2.2,7.4-5.8,9.6-7.7c-1.2-1.5-1.8-2.3-2.8-3.4c-1-1.1-2-2.2-3.1-3.4c-3.3,2.9-6.1,5.5-8.9,8.5c-0.9-1.2-1.7-2.1-2.1-2.6
		c-0.6-0.7-1.2-1.3-2.5-2.7c3-2.1,8.1-6.3,10.3-8.3c2.2-1.9,9.4-8,9.4-9.7l0.1-0.1c1,1.3,1.7,2.1,2.4,3c0.8,0.9,1.6,1.8,2.5,2.7
		c-2.3,1.3-5.2,3.9-9,7.2c1.3,1.7,1.9,2.3,2.9,3.5c1,1.1,1.5,1.7,3.1,3.3c4.5-4,6.7-5.8,7.9-8.3l0.1,0c0.8,1.1,1.4,1.8,2.4,3
		c0.8,0.9,1.8,2,2.5,2.7C108.6,383.6,103.7,387.7,100.9,390.1L100.9,390.1z"/>
	<path fill="#AF182A" d="M117.6,394.7l-0.1-0.1c-3,1.7-5.5,3.3-8.2,5c0.7,0.7,1.3,1.3,2,1.9c1,0.9,1.5,1.3,2.3,1.9
		C115,400.5,116.4,397.5,117.6,394.7L117.6,394.7z M110.6,416.5c-1-0.8-1.8-1.6-2.9-2.4c1.8-2.3,3.9-6.4,4.8-8.3
		c-0.9-0.9-1.8-1.8-2.7-2.6c-0.9-0.8-2-1.6-2.7-2.2c-1.9,1.2-5.9,3.9-7.3,6.2c-1-1-1.5-1.5-2.3-2.1c-0.8-0.7-1.6-1.4-2.5-2.1
		c1.6-0.6,4.3-1.8,5.4-2.4c2.3-1.2,5.5-2.9,8-4.3c2.2-1.2,5.8-3.3,8.6-5c0.8-0.5,2.1-1.2,2.5-2.1l0.2-0.2c1,0.9,1.8,1.5,2.5,2
		c0.9,0.8,1.9,1.5,2.9,2.2c-0.5,0.7-1.2,2.1-1.8,3.4c-1.3,2.6-2.8,5.8-3.9,8.3c-1.9,4.2-2.9,6.6-3.8,8.8c-0.4,0.9-1.3,3.3-1.7,5.5
		C112.4,418.1,111.5,417.3,110.6,416.5L110.6,416.5z"/>
	<path fill="#AF182A" d="M120.6,424.1c-1-0.7-1.7-1.2-3.2-2.1c3.2-3.4,6.5-7.9,8.3-10.5c2.6-3.6,6.4-8.5,6.9-11.5l0.1-0.1
		c1,0.8,1.9,1.5,2.8,2.2c1,0.7,2.1,1.4,3.3,2.2c-2.5,2.5-6.8,8.5-7.7,9.8c-1.5,2-5.7,7.8-7.8,12.1
		C121.9,425,121.2,424.5,120.6,424.1L120.6,424.1z"/>
	<path fill="#AF182A" d="M151.9,427.6c-1.8,3.2-3.8,6.9-4.5,8.2c-2.2,3.9-5.7,5.7-14.4,2.1l0.8-2.4c3.5,1.5,5.6,1.4,7.9-2
		c0.8-1.3,2.7-4.6,4.1-7.1c2.4-4.3,6.3-10.7,6.3-13.6l0.1-0.2c1.2,0.8,2.3,1.4,3.3,2c1,0.6,2,1.1,3.3,1.7
		C156.3,419.4,153.3,425,151.9,427.6L151.9,427.6z"/>
	<path fill="#AF182A" d="M158.8,446.2c-1.6-0.8-2.4-1.2-3-1.6c-1.1-0.5-1.9-0.8-3.5-1.5c2.5-3.9,4.9-9,6.2-11.8
		c1.9-4.1,4.7-9.6,4.6-12.6l0-0.1c1.1,0.6,2.1,1.1,3.2,1.6c1.1,0.5,2.3,1,3.7,1.6c-2,2.9-5.1,9.7-5.8,11
		C163.2,435.1,160.2,441.6,158.8,446.2L158.8,446.2L158.8,446.2z"/>
	<path fill="#AF182A" d="M180.9,432.2l-0.2-0.1c-2.1,2.7-3.9,5.1-5.8,7.6c1,0.4,1.7,0.7,2.6,1c1.3,0.5,1.9,0.6,2.8,0.9
		C180.6,438.6,180.8,435.3,180.9,432.2L180.9,432.2z M182.4,455.1c-1.2-0.4-2.3-0.8-3.6-1.2c0.9-2.8,1.3-7.3,1.4-9.5
		c-1.2-0.5-2.3-1-3.5-1.4c-1.1-0.4-2.4-0.8-3.3-1c-1.3,1.8-4,5.8-4.5,8.4c-1.3-0.5-1.9-0.8-2.9-1.2c-1.1-0.4-2-0.7-3.1-1
		c1.3-1.1,3.3-3.3,4.1-4.2c1.7-1.9,4.1-4.7,5.9-6.9c1.6-2,4.2-5.2,6.1-7.8c0.6-0.7,1.5-1.9,1.6-2.9l0.1-0.2c1.3,0.4,2.2,0.8,3,1
		c1.1,0.4,2.3,0.7,3.5,1c-0.2,0.8-0.3,2.4-0.5,3.9c-0.2,2.9-0.4,6.4-0.6,9.2c-0.2,4.6-0.3,7.2-0.3,9.5c0,1,0,3.5,0.4,5.8
		C184.6,456,183.5,455.5,182.4,455.1L182.4,455.1z"/>
	<path fill="#AF182A" d="M198.5,446.2c-1.3,6.1-0.6,10.7,4.1,11.7c5.4,1.2,7.5-4,8.7-9.2c1.1-5,1.4-10.9-3.9-12.1
		C202.1,435.4,199.8,440.4,198.5,446.2L198.5,446.2z M217.5,449.9c-1.3,6-4.6,12.9-15.4,10.6c-6.6-1.4-12.1-4.6-9.7-15.7
		c1.4-6.5,4.6-13.3,15.4-10.9C217.1,435.9,219.3,441.4,217.5,449.9L217.5,449.9z"/>
	<path fill="#AF182A" d="M251.2,442.3l-0.2,0c-0.9-0.5-3.7-1.1-7.2-1.2c0,0.8-0.3,6.2-0.6,11.9c-0.2,5.6,0.1,11.4,0.3,12.3
		c-1.7-0.1-2.1-0.2-3.6-0.2c-1.2,0-2.2-0.1-3.7,0c0.7-3.5,1.1-10.8,1.2-13.5c0.1-2.8,0.2-8,0.3-10.6c-2.9-0.1-6.7,0.1-7.8,0.7
		l-0.3,0c0.3-1.1,0.6-2.8,0.6-3.8c3.9,0.4,7,0.5,10.5,0.7c3.8,0.1,7.5,0.3,11.3,0.1C251.8,439.4,251.5,440.9,251.2,442.3
		L251.2,442.3z"/>
	<path fill="#AF182A" d="M258.9,452c0.5,6.2,2.6,10.4,7.3,10c5.5-0.5,6-6,5.6-11.3c-0.4-5-1.8-10.9-7.2-10.4
		C259.2,440.6,258.4,446.1,258.9,452L258.9,452z M278.1,450c0.5,6.2-0.6,13.7-11.7,14.6c-6.7,0.6-12.9-0.9-13.8-12.2
		c-0.6-6.6,0.6-14,11.6-15C273.7,436.7,277.4,441.3,278.1,450L278.1,450z"/>
	<path fill="#AF182A" d="M303.3,445.2c0.4,1.8,2,9.1,3,12.3c-1.7,0.3-3.3,0.8-4.8,1.4c-2.7-2.7-7.4-7.9-9.5-10.2l-6.2-7l-0.1,0
		l1.7,7.5c0.3,1.4,2.5,9.1,3.8,11.7c-1,0.1-1.8,0.3-2.7,0.5c-0.9,0.2-1.9,0.5-2.7,0.7c0.1-4-2-14.1-2.5-16.1
		c-0.3-1.5-1.5-7.7-3.1-10l0-0.2c1.2-0.2,2.5-0.4,3.8-0.7c1.3-0.3,2.6-0.6,3.6-0.9c1.2,1.7,4.2,5.4,5.9,7.3c3.4,3.6,5.5,5.9,7.4,7.9
		l0.1,0l-1.1-5c-0.6-2.9-2.7-10.4-3.9-12c0.7-0.1,1.9-0.3,2.8-0.5c1.2-0.3,1.3-0.3,2.6-0.7C301.3,434.8,302.9,443.2,303.3,445.2
		L303.3,445.2z"/>
	<path fill="#AF182A" d="M332.3,442.2c0.3,1,1,3.1,2,5.1c-3.3,2-5.5,3-8.9,4.2c-8,2.9-13.4,0.9-16.8-8.5c-2.1-5.8-2.5-13.5,8.6-17.5
		c3-1.1,6.6-2.2,8.4-2.7c0.1,1.9,0.3,3.5,0.7,5.3l-0.3,0.1c-2-1.1-5-1.4-8.3-0.2c-5.1,1.9-5.4,6.7-3.2,12.8
		c3.1,8.5,6.6,9.3,11.3,7.5c2.1-0.8,2-2,1.5-3.2l-1-2.7c-0.4-1.2-1-2.7-2.5-3.9l0-0.2c1.1-0.3,2.4-0.7,3.5-1.2
		c1.5-0.5,1.9-0.7,3.2-1.3C330.8,437.3,331.6,440.2,332.3,442.2L332.3,442.2z"/>
	<path fill="#AF182A" d="M360.8,413c1.5,2.6,3.2,5.8,4.8,8.4c2.6,4.3,2.6,8.7-4.5,12.9c-7.5,4.5-10.9,2.7-13.7-2.1
		c-0.7-1.2-2.6-4.5-3.9-6.7c-0.9-1.6-4-7.2-6.1-8.3l-0.1-0.1c1-0.5,2.2-1.2,3.2-1.8c1.1-0.6,1.9-1.1,3.3-2.1c1.1,3.3,4.8,9.4,5.7,11
		c2.4,4,3.9,6.5,5,7.4c1.4,1.2,3.6,1.4,5.7,0.2c4.9-2.9,3.5-6,0.4-11.2c-4.3-7.2-5.8-10-8.6-12.3c0.8-0.4,1.5-0.8,2.7-1.5
		c1.1-0.7,1.7-1.1,2.5-1.6C358.2,408.6,359.9,411.4,360.8,413L360.8,413z"/>
	<path fill="#AF182A" d="M384.8,401.4c1.1,1.4,5.8,7.4,8.1,9.8c-1.4,1.1-2.6,2.2-3.7,3.3c-3.6-1.3-10.1-3.8-13-5l-8.7-3.5l-0.1,0.1
		l4.8,6c0.9,1.1,6.2,7.1,8.5,8.9c-0.8,0.6-1.5,1-2.3,1.6c-0.7,0.6-1.5,1.2-2.1,1.9c-1.6-3.6-8-11.8-9.3-13.4c-1-1.2-4.8-6.2-7.2-7.6
		l-0.1-0.2c1-0.7,2-1.5,3.1-2.3c1.1-0.9,2.1-1.7,2.8-2.4c1.8,1,6.1,3,8.5,3.9c4.6,1.8,7.5,2.9,10.1,3.9l0.1-0.1l-3.2-4
		c-1.8-2.3-7-8.2-8.8-9.1c0.6-0.4,1.6-1.1,2.3-1.7c1-0.8,1.1-0.9,2-1.8C378.4,392.9,383.5,399.7,384.8,401.4L384.8,401.4z"/>
	<path fill="#AF182A" d="M401.2,403.2c-0.9,0.9-1.5,1.5-2.7,2.7c-2.8-3.7-6.7-7.8-8.9-10c-3.1-3.2-7.3-7.8-10.1-8.8l-0.1-0.1
		c1-0.8,1.8-1.6,2.6-2.4c0.9-0.8,1.8-1.8,2.8-2.9c2,2.9,7.2,8.2,8.3,9.3c1.7,1.8,6.7,6.9,10.5,9.8
		C402.3,402.1,401.7,402.6,401.2,403.2L401.2,403.2z"/>
	<path fill="#AF182A" d="M404.3,367.2c1.3,2.2,3.3,5.5,5.1,8.5c1.8,2.9,5.3,8.8,6.8,11.3c-1,1.1-2,2.4-2.8,3.7
		c-4.3-1.9-8.6-3.7-13.1-5.5c-3.5-1.4-6.8-2.8-9.1-3.6c-1.4-0.5-3.4-1.1-4.4-1.1l-0.1-0.1c0.9-0.8,1.8-1.9,2.7-2.9
		c0.9-1.1,1.8-2.1,2.5-3.1c0.8,0.7,2.3,1.6,3.4,2.2c1.7,0.9,4.9,2.3,8.2,3.7c2.5,1,4.3,1.8,6.4,2.6l0.1-0.1
		c-1.1-1.9-3.4-5.4-4.5-7.1c-2.9-4.1-5.1-7.2-7.3-8.5c0.7-0.7,1.3-1.4,2-2.2c0.7-0.8,1.2-1.4,1.9-2.3
		C402.6,364.2,403.5,365.9,404.3,367.2L404.3,367.2z"/>
	<path fill="#AF182A" d="M434.9,361.6c-2.4,3.2-3.7,5.3-5.2,7.5c-1.6,2.3-2.1,3-4.5,6.8c-3.1-2.8-6.3-5-10.6-7.9
		c-4.4-3-9.8-6.9-11.7-6.8l-0.1-0.1c1.7-2.3,3.9-5.5,5.1-7.3c1-1.4,2.7-4,4.8-7.3c0.5,0.8,1.9,2,2.7,2.6l-0.1,0.1
		c-1.8,1.3-4,4.1-6.3,7.5c2,1.7,5.6,4.1,7.3,5.2c1.5-2.2,2.6-3.9,3.7-6.4c0.8,0.8,1.9,1.7,2.8,2.4c-2.1,1.8-3.3,3.7-4.4,5.3l3.9,2.6
		c3.7,2.5,4.6,2.4,5.9,0.4c1.8-2.6,3.2-5.4,3.5-7.7l0.1-0.2C432.9,359.9,433.9,360.7,434.9,361.6L434.9,361.6z"/>
	<path fill="#AF182A" d="M421.1,336.3c-0.6,1.1-0.9,1.9-1.2,2.7c1.6,1,3.6,2.1,4.2,2.4c1.5,0.8,2.4,1.3,3.8,2c0.5-0.9,0.8-1.4,1.1-2
		c1.2-2.4,1.1-4.6-2.6-6.5C423.4,333.3,421.8,334.8,421.1,336.3L421.1,336.3z M446.5,339.9c-0.6,1.1-1,2-1.6,3.4
		c-2.1-0.7-4.3-1.1-6.9-1.6c-2.5-0.4-4.4-0.7-5.4-0.2c-1,0.5-1.5,1.6-2.3,3.1c2,0.9,8.5,4.3,11.3,5c-0.6,1-1.2,2.1-1.8,3.2
		c-0.6,1.1-1.1,2.2-1.5,3.2c-3.1-2.3-9.7-5.6-11.8-6.7c-3.5-1.8-10-5.3-12.1-5.3l-0.1-0.1c1-1.9,1.8-3.4,2.8-5.3
		c1.1-2.2,1.9-3.8,3.2-6.1c2.5-4.8,5.7-5,8.6-3.4c3,1.6,4.7,4.7,3.3,8.7l0.1,0c1.1-1.9,2.6-2.5,4.4-2.3c1.2,0.1,1.6,0.2,3.8,0.5
		c2.8,0.4,6.2,0.9,7.9,0.4l0.2,0.1C447.5,338,447,339,446.5,339.9L446.5,339.9z"/>
	<path fill="#AF182A" d="M452.4,326.5c-0.5,1.4-2,4.6-3,6.7c-1.2-0.7-2.8-1.5-4.3-2.3l0.1-0.2c2.2-1.1,4.1-3,5.1-5.6
		c0.9-2.3,0.3-4.2-1.6-4.9c-1.4-0.5-2.5-0.3-4,0.6c-2.2,1.3-4,3.3-6.5,4.7c-2.8,1.5-4.9,1.3-7.1,0.5c-2.2-0.8-6-3.7-2.8-12
		c0.6-1.6,1.6-4,2.6-5.9c1,0.8,2.6,1.7,4,2.6l-0.1,0.2c-1.7,0.6-3.1,1.4-4.2,4.3c-1.1,2.8-0.1,4.7,1.6,5.3c2,0.7,3.2,0.9,7.5-2.8
		c5.4-4.6,7.3-4,9.6-3.2C451.9,315.6,455.4,318.8,452.4,326.5L452.4,326.5z"/>
	<path fill="#AF182A" d="M458.4,307.9c-0.3,1.2-0.5,2-1,3.7c-4.2-1.8-9.7-3.5-12.7-4.3c-4.3-1.2-10.2-3.1-13.1-2.6l-0.1,0
		c0.4-1.2,0.8-2.2,1.1-3.4c0.3-1.2,0.6-2.5,1-3.9c3.1,1.5,10.3,3.6,11.8,4c2.4,0.7,9.2,2.7,14,3.3
		C458.9,306.4,458.6,307.2,458.4,307.9L458.4,307.9z"/>
	<path fill="#AF182A" d="M442.1,275.6l-0.1,0.2c-0.6,0.8-1.7,3.5-2.4,6.9c0.8,0.2,6.1,1.3,11.7,2.4c5.5,1.1,11.2,1.7,12.2,1.7
		c-0.4,1.6-0.5,2.1-0.8,3.5c-0.2,1.2-0.4,2.1-0.6,3.6c-3.3-1.2-10.5-2.8-13.1-3.3c-2.8-0.6-7.9-1.5-10.5-2c-0.6,2.9-1,6.6-0.5,7.8
		l0,0.2c-1.1-0.5-2.6-1-3.6-1.2c1-3.7,1.6-6.8,2.3-10.3c0.7-3.7,1.5-7.4,1.9-11.1C439.3,274.6,440.8,275.2,442.1,275.6L442.1,275.6z
		"/>
	<path fill="#AF182A" d="M443.5,254.2c2.1,1.6,4.2,3.2,11.8,8.1c2.6,0.2,4,0.3,5.9,0.4c1.8,0,4,0,5.3-0.2c-0.2,1.5-0.3,2.5-0.4,3.6
		c-0.1,1.2-0.1,1.8-0.2,3.7c-1.2-0.4-3.7-0.9-5.1-1c-1.9-0.2-3.3-0.4-5.9-0.6c-6.4,2.6-11.8,5.3-13.2,6c-0.9,0.4-2.5,1.4-3.1,2.1
		l-0.2,0c0.2-1.4,0.4-2.8,0.5-4.2c0.1-1.4,0.2-2.9,0.3-4.4c1,0,2-0.2,2.9-0.5c2.1-0.7,5.1-1.6,9.7-3.6l0-0.1
		c-2.5-1.6-6.1-3.5-8.3-4.5c-1-0.5-2.5-0.9-3.5-0.9c0.2-1,0.3-1.7,0.4-3.2c0.1-1.1,0.2-2.1,0.1-3.1
		C441.5,252.7,442.9,253.8,443.5,254.2L443.5,254.2z"/>
	<path fill-rule="evenodd" clip-rule="evenodd" fill="#AF182A" d="M441.8,143.1c-0.2,3.8-4.3,6.4-7.5,8.2c-3.1,1.7-7.3-2.4-8-5
		c-0.3-1.3-0.7-5.3,0.4-6.2c1.3-1,3.2-0.2,4.5-1.3c0.1-0.1,0.3-0.7,0.2-0.8c-0.5-3.8,5.3-1.4,8.3,1
		C440.7,139.7,441.8,142.4,441.8,143.1L441.8,143.1z M449.5,167.7c-0.2-1.1-1-4-1.1-5.9l0,0c-0.1-5-1.3-9.3-2-14.2
		c-0.3-2.1-1.4-10,2.3-10c0.2,0,0.9-0.8,0.9-1.1c0.3-3.9-2.2-5.4-5.7-4c-1.9,0.8-3,1-4.9-0.2c-0.4-0.3-4.1-2.4-7.6-4.7
		c-2.2-1.4-8.8-6.5-8.8-6.5c-3-1.8-6-6.4-7.8-1.2c2.3,4.7,7.5,6.3,11.1,9.6c1.8,1.5,3,4.9-0.6,3.7c-3.5-1.3-7.5-5.6-9.7-6.8
		c-2-1.2-6.7-1.6-5.1,2.1c0.9,2.2,2.7,4.1,4.9,5.1c1.2,0.6,5.4,1.9,5.7,2.9c0.7,1.4,0.4,4.7-0.6,5.9c-1.6,1.9-5.8-1.1-7.8-2.7
		c-0.1-0.1-1-0.7-2.2-1.4c-1.3-0.8-4.2-2.2-6.2-3.1c-1-0.4-3.1-1.2-3.7-1.4c-2.1-0.6-8.9-2.3-7.6,2.5c0,0.1,0.2,0.3,0.4,0.5
		c0.7,0.5,2.3,1.6,4.2,2.6c1.8,1,9.9,3.5,12.9,5.1c2.8,1.5,6,2.3,8.4,4.5c1,0.9,1.4,1.8,1.6,2.6c0.2,0.9,1.3,6.1,1.3,8
		c0,4.7-1.2,10.4-2.3,13.9c-1.1,3.7-4.4,9.8,1.6,10.1c6,0.2,5.8-19.5,6.1-23.8c0.1-1.3,0.6-7.2,3.2-5.1c4.3,3.6,3.2,9.5,3.7,14.4
		c0.1,1.4,1.4,1.8,2.6,2.1c0.4,0.1,2,0.1,2.1-0.2c1-1.6,1.1-3.6,1-5.4c-0.2-3.2-1.7-7.6-0.4-10.7c0.9-1.8,2.2-2.4,2.9-0.2
		c0,0.1,0.1,0.2,0.1,0.2c0.2,0.7,0.5,2.7,0.4,3.2c-0.1,3.6,1.3,13,1.5,13.2c1.4,1.9,4,2.9,5.8,0.4
		C450.7,171.2,449.7,168.8,449.5,167.7L449.5,167.7z"/>
	<path fill-rule="evenodd" clip-rule="evenodd" fill="#AF182A" d="M270.4,333.5c0,0.6-0.6,1.1-1.3,1.1h-12.3c-0.7,0-1.3-0.5-1.3-1.1
		v-2.8c0-0.6,0.6-1.1,1.3-1.1v0h12.3c0.7,0,1.3,0.5,1.3,1.1V333.5L270.4,333.5z M273.7,326h-21.4c-1.5,0-2.7,1.3-2.7,3v6.3
		c0,1.6,1.2,2.9,2.7,2.9l8.4,0l8.4,0c0.7,0,1.3,0.5,1.3,1.1v2c0,0.6-0.6,1.1-1.3,1.1h-12.3c-0.5,0-0.9-0.3-1.1-0.6h-6.2v1.2
		c0,1.6,1.2,2.9,2.7,2.9h21.4c1.5,0,2.7-1.3,2.7-2.9v-14C276.4,327.4,275.2,326,273.7,326L273.7,326z"/>
	<path fill-rule="evenodd" clip-rule="evenodd" fill="#AF182A" d="M290.1,338.5c0-0.6,0.6-1.1,1.3-1.1h12.3c0.7,0,1.3,0.5,1.3,1.1
		v2.8c0,0.6-0.6,1.1-1.3,1.1v0h-12.3c-0.7,0-1.3-0.5-1.3-1.1V338.5L290.1,338.5z M286.7,345.9h21.4c1.5,0,2.7-1.3,2.7-2.9v-6.3
		c0-1.6-1.2-2.9-2.7-2.9l-8.4,0l-8.4,0c-0.7,0-1.3-0.5-1.3-1.1v-2c0-0.6,0.6-1.1,1.3-1.1h12.3c0.5,0,0.9,0.3,1.1,0.6h6.2V329
		c0-1.6-1.2-2.9-2.7-2.9h-21.4c-1.5,0-2.7,1.3-2.7,2.9v14C284,344.6,285.2,345.9,286.7,345.9L286.7,345.9z"/>
</g>
</svg>
